<?xml version="1.0" encoding="utf-8"?>
<!-- Generator: Adobe Illustrator 16.0.0, SVG Export Plug-In . SVG Version: 6.00 Build 0)  -->
<!DOCTYPE svg PUBLIC "-//W3C//DTD SVG 1.1//EN" "http://www.w3.org/Graphics/SVG/1.1/DTD/svg11.dtd">
<svg version="1.1" id="Layer_1" xmlns="http://www.w3.org/2000/svg" xmlns:xlink="http://www.w3.org/1999/xlink" x="0px" y="0px"
	 width="18px" height="18px" viewBox="0 0 18 18" enable-background="new 0 0 18 18" xml:space="preserve">
<g>
	<path fill="#7A7A8A" d="M9,2.167c3.86,0,7,3.14,7,7s-3.14,7-7,7s-7-3.14-7-7S5.14,2.167,9,2.167 M9,0.167c-4.971,0-9,4.029-9,9
		s4.029,9,9,9s9-4.029,9-9S13.971,0.167,9,0.167L9,0.167z"/>
</g>
<path fill-rule="evenodd" clip-rule="evenodd" fill="#7A7A8A" d="M12,7.368l-1.201-1.201L9,7.966L7.201,6.167L6,7.368l1.799,1.799
	L6,10.965l1.201,1.201L9,10.368l1.799,1.799L12,10.965l-1.799-1.799L12,7.368z"/>
</svg>
